Coordinates
version=1
nRows=13
nColumns=22
inDegrees=yes

Units are S.I. units (second, meters, Newtons, ...)
If the header above contains a line with 'inDegrees', this indicates whether rotational values are in degrees (yes) or radians (no).

endheader
time	pelvis_tilt	pelvis_list	pelvis_rotation	pelvis_tx	pelvis_ty	pelvis_tz	hip_flexion_r	hip_adduction_r	hip_rotation_r	knee_angle_r	ankle_angle_r	subtalar_angle_r	hip_flexion_l	hip_adduction_l	hip_rotation_l	knee_angle_l	ankle_angle_l	subtalar_angle_l	lumbar_extension	lumbar_bending	lumbar_rotation
      1.26000000	      0.61566517	     -4.27071932	     -3.93263328	     -1.36909308	      1.02176999	     -0.15223624	     -0.17354781	      8.38469377	     -6.14465606	    -11.33799324	     10.78919031	     -3.25418278	      2.04295017	     -6.05741384	     -4.98540655	    -16.62195050	     14.43358449	     -0.68634401	    -13.78130755	      3.67113271	      4.20384408
      1.27000000	      0.62496322	     -4.38866501	     -3.80838876	     -1.36855426	      1.02137733	     -0.15131220	     -0.19333725	      8.56925472	     -6.19378476	    -11.40746061	     10.87757026	     -3.28127919	      2.50480898	     -6.26950017	     -4.74379591	    -17.53808043	     14.66476677	     -0.63089761	    -13.91734458	      3.80447362	      4.23125894
      1.28000000	      0.65560358	     -4.53193922	     -3.67834381	     -1.36798341	      1.02097928	     -0.15039550	     -0.25023508	      8.77986665	     -6.25529103	    -11.45544420	     10.96352126	     -3.30248897	      2.99053152	     -6.50420368	     -4.47031537	    -18.54497214	     14.90650017	     -0.59574555	    -14.08397249	      3.96808492	      4.26463851
      1.29000000	      0.63461842	     -4.67923409	     -3.52684735	     -1.36739652	      1.02046437	     -0.14950735	     -0.26435595	      8.99979818	     -6.34625759	    -11.47864091	     11.06697980	     -3.32715159	      3.60162620	     -6.74264832	     -4.15674016	    -19.66893393	     15.08833579	     -0.54132545	    -14.18817662	      4.14351563	      4.27617236
      1.30000000	      0.64094838	     -4.84860041	     -3.36572312	     -1.36677470	      1.01996689	     -0.14864820	     -0.32275625	      9.24197789	     -6.44718372	    -11.47827165	     11.14951218	     -3.34864534	      4.22517204	     -6.99285842	     -3.79986742	    -20.87068414	     15.27429531	     -0.50584744	    -14.32743044	      4.34734652	      4.29564807
      1.31000000	      0.64792119	     -5.02448392	     -3.18965139	     -1.36611427	      1.01945605	     -0.14781310	     -0.39979574	      9.49308483	     -6.56182620	    -11.44593689	     11.22902687	     -3.36953850	      4.89531319	     -7.23988263	     -3.40352507	    -22.15371249	     15.42173726	     -0.47705677	    -14.46628416	      4.55860810	      4.31143494
      1.32000000	      0.66069154	     -5.20101101	     -2.99611921	     -1.36538829	      1.01895986	     -0.14702909	     -0.50623940	      9.74621248	     -6.68608126	    -11.37297543	     11.29385600	     -3.38845849	      5.60089181	     -7.47267402	     -2.97089167	    -23.50737198	     15.52311400	     -0.45797228	    -14.60442562	      4.77597364	      4.32234476
      1.33000000	      0.67716125	     -5.36848576	     -2.79220929	     -1.36458989	      1.01848714	     -0.14628167	     -0.63558130	      9.99190437	     -6.80952936	    -11.26878403	     11.35745109	     -3.40675933	      6.33845958	     -7.67953742	     -2.51195130	    -24.92338851	     15.56548682	     -0.45011136	    -14.73880429	      4.98430582	      4.33476616
      1.34000000	      0.74013533	     -5.53449273	     -2.58224898	     -1.36369553	      1.01812527	     -0.14555467	     -0.84329194	     10.23739213	     -6.91579306	    -11.11868899	     11.38447746	     -3.41802483	      7.04879263	     -7.86915802	     -2.04446627	    -26.38227084	     15.57394085	     -0.46573990	    -14.91879258	      5.18569823	      4.35464332
      1.35000000	      0.72640402	     -5.65803857	     -2.36429269	     -1.36272421	      1.01768899	     -0.14487028	     -0.97883610	     10.44144127	     -7.04276947	    -10.95153230	     11.46031118	     -3.43541212	      7.88521712	     -7.99832242	     -1.55835839	    -27.90597838	     15.46403715	     -0.48895173	    -14.99008115	      5.34572563	      4.37348963
      1.36000000	      0.74583482	     -5.77151260	     -2.15281287	     -1.36167262	      1.01736100	     -0.14419099	     -1.17085673	     10.63583842	     -7.14723036	    -10.75226556	     11.50067338	     -3.44630122	      8.70361635	     -8.10236065	     -1.08532906	    -29.45895764	     15.32287017	     -0.54057022	    -15.09417828	      5.48906147	      4.41006748
      1.37000000	      0.76746394	     -5.86047222	     -1.95186015	     -1.36057386	      1.01709429	     -0.14350746	     -1.37331096	     10.80540178	     -7.23350714	    -10.54162877	     11.52275439	     -3.45067393	      9.54087465	     -8.16777307	     -0.62960035	    -31.03635287	     15.14254375	     -0.61276839	    -15.19811099	      5.59840784	      4.45811395
      1.38000000	      0.74829862	     -5.92405779	     -1.76724836	     -1.35943438	      1.01682127	     -0.14282130	     -1.53664165	     10.94879098	     -7.31979364	    -10.32466929	     11.56608954	     -3.45270994	     10.44000245	     -8.19237102	     -0.18700377	    -32.62173224	     14.92092091	     -0.70519723	    -15.24844024	      5.67391083	      4.54367787
